<?xml version="1.0" standalone="no"?>
<!DOCTYPE svg PUBLIC "-//W3C//DTD SVG 20010904//EN"
 "http://www.w3.org/TR/2001/REC-SVG-20010904/DTD/svg10.dtd">
<svg version="1.0" xmlns="http://www.w3.org/2000/svg"
 width="172.000000pt" height="172.000000pt" viewBox="0 0 172.000000 172.000000"
 preserveAspectRatio="xMidYMid meet">
<metadata>
Created by potrace 1.11, written by Peter Selinger 2001-2013
</metadata>
<g transform="translate(0.000000,172.000000) scale(0.100000,-0.100000)"
fill="#000000" stroke="none">
<path d="M1035 1658 c-15 -18 -41 -61 -58 -95 -16 -35 -32 -63 -36 -62 -3 0
-33 31 -66 70 -33 38 -68 69 -78 69 -12 0 -26 -17 -42 -52 -14 -29 -25 -59
-25 -66 0 -17 -35 26 -79 96 -33 51 -58 64 -54 26 2 -10 10 -64 18 -119 8 -55
15 -119 15 -142 0 -23 4 -44 9 -47 5 -3 12 -22 15 -41 4 -20 16 -63 26 -96 11
-33 24 -97 30 -142 17 -124 28 -251 24 -256 -2 -3 -11 4 -18 15 -12 16 -15 16
-20 4 -7 -22 -18 -225 -20 -379 l-2 -133 -65 -44 c-35 -25 -101 -70 -147 -101
-46 -30 -81 -60 -79 -67 3 -8 68 -11 223 -10 311 1 556 13 551 28 -3 8 -54 10
-178 7 -96 -1 -171 0 -167 4 9 10 205 90 241 99 29 7 36 23 14 32 -15 5 -86
-17 -162 -51 -27 -12 -61 -26 -75 -30 -14 -4 -44 -20 -68 -36 -36 -24 -53 -29
-107 -29 -60 0 -65 2 -71 24 -15 61 11 89 166 177 30 18 57 35 60 38 9 12 77
51 88 51 6 0 12 -10 14 -22 6 -43 27 -31 30 18 3 45 5 47 55 74 29 16 56 30
61 32 7 3 3 106 -12 293 l-6 70 25 -40 c13 -22 28 -49 34 -60 5 -11 39 -69 75
-129 36 -60 66 -112 66 -117 0 -4 14 -32 32 -61 17 -29 38 -82 45 -118 23
-106 35 -181 30 -187 -3 -2 -44 -8 -91 -11 -50 -4 -85 -11 -84 -17 3 -11 194
-12 205 -1 7 7 -8 129 -29 228 -9 38 -11 69 -6 70 13 5 -8 564 -22 605 -6 17
-17 166 -23 330 -14 340 -15 345 -80 225 -22 -40 -41 -72 -42 -70 -2 2 -23 41
-48 88 -25 46 -49 86 -55 88 -5 1 -22 -12 -37 -30z m88 -118 c49 -93 75 -109
89 -55 4 17 16 47 27 67 l19 38 7 -213 c4 -116 11 -243 16 -282 23 -198 28
-267 33 -455 l6 -205 -40 77 c-22 43 -62 114 -90 159 -28 44 -55 90 -61 102
-5 12 -23 42 -39 67 -16 25 -36 60 -44 78 -32 70 -56 13 -37 -88 5 -30 13
-112 17 -181 l7 -126 -32 -13 c-18 -7 -68 -37 -112 -67 -44 -29 -82 -53 -85
-53 -2 0 -4 20 -4 45 0 24 -4 66 -9 92 -6 26 -12 100 -15 163 -9 201 -38 433
-65 517 -10 32 -22 74 -26 93 -4 19 -11 40 -15 45 -4 6 -10 48 -14 95 -4 47
-10 96 -13 110 -6 24 -5 24 20 -6 15 -18 27 -35 27 -40 0 -13 32 -44 45 -44 7
0 18 20 24 45 11 43 51 121 51 100 0 -6 31 -43 69 -84 48 -51 74 -72 85 -68 9
4 16 13 16 21 0 36 78 172 91 159 4 -4 28 -46 52 -93z m-372 -911 c6 -68 13
-154 17 -191 7 -66 7 -68 -21 -89 -16 -11 -32 -18 -35 -14 -9 9 -7 189 3 328
5 68 11 105 17 99 5 -5 14 -65 19 -133z"/>
</g>
</svg>
